<?xml version="1.0" encoding="utf-8"?>
<!-- Generator: Adobe Illustrator 15.0.2, SVG Export Plug-In . SVG Version: 6.00 Build 0)  -->
<!DOCTYPE svg PUBLIC "-//W3C//DTD SVG 1.1//EN" "http://www.w3.org/Graphics/SVG/1.1/DTD/svg11.dtd">
<svg version="1.1" id="Layer_1" xmlns="http://www.w3.org/2000/svg" xmlns:xlink="http://www.w3.org/1999/xlink" x="0px" y="0px"
	 width="32px" height="32px" viewBox="0 0 32 32" enable-background="new 0 0 32 32" xml:space="preserve">
<path fill-rule="evenodd" clip-rule="evenodd" fill="#FFFFFF" d="M7.4,17.9v-0.8c0-0.1,0-0.3-0.1-0.4C7.3,16.3,7,16,6.7,15.8
	c-0.3-0.2-0.6-0.3-0.9-0.3H1.7c-0.4,0-0.7,0.1-1,0.4c-0.2,0.1-0.3,0.3-0.4,0.5c-0.1,0.2-0.2,0.5-0.2,0.8v4h1.2v4.9h0
	c1.6,0,3.2,0,4.9,0c0-1.6,0-3.2,0-4.9h1.2v0c0,0,0,0,0,0C7.4,20,7.4,18.9,7.4,17.9z"/>
<path fill-rule="evenodd" clip-rule="evenodd" fill="#FFFFFF" d="M3.8,14.3c1,0,1.8-0.8,1.8-1.8c0-1-0.8-1.8-1.8-1.8
	c-1,0-1.8,0.8-1.9,1.8C1.9,13.5,2.7,14.3,3.8,14.3z"/>
<path fill-rule="evenodd" clip-rule="evenodd" fill="#FFFFFF" d="M15.3,15.2v-1.8v-0.4v-0.2c0-0.9-0.7-1.6-1.6-1.6H9
	c-0.9,0-1.6,0.7-1.6,1.6v0.4c0,0.4,0,0.9,0,1.3c0,0.1,0.1,0.2,0.1,0.2c0.8,0.6,1.1,1.4,1.1,2.3c0,0.6,0,1.1,0,1.7h0v7.2h0
	c1.8,0,3.6,0,5.5,0c0-2.2,0-4.5,0-6.7c0.4,0,1.2,0,1.2,0h0v-2.7C15.3,16,15.3,15.6,15.3,15.2z"/>
<path fill-rule="evenodd" clip-rule="evenodd" fill="#FFFFFF" d="M11.1,10c1.3,0,2.4-1.1,2.4-2.4c0-1.4-1.1-2.5-2.4-2.5
	c-1.3,0-2.4,1.1-2.4,2.4C8.6,8.9,9.7,10,11.1,10z"/>
<path fill-rule="evenodd" clip-rule="evenodd" fill="#FFFFFF" d="M24.6,17.9v-0.8c0-0.1,0-0.3,0.1-0.4c0.1-0.4,0.3-0.7,0.6-0.9
	c0.3-0.2,0.6-0.3,0.9-0.3h4.1c0.4,0,0.7,0.1,1,0.4c0.2,0.1,0.3,0.3,0.4,0.5c0.1,0.2,0.2,0.5,0.2,0.8v4h-1.2v4.9h0
	c-1.6,0-3.2,0-4.9,0c0-1.6,0-3.2,0-4.9h-1.2v0c0,0,0,0,0,0C24.6,20,24.6,18.9,24.6,17.9z"/>
<path fill-rule="evenodd" clip-rule="evenodd" fill="#FFFFFF" d="M28.2,14.3c-1,0-1.8-0.8-1.8-1.8c0-1,0.8-1.8,1.8-1.8
	c1,0,1.8,0.8,1.9,1.8C30.1,13.5,29.3,14.3,28.2,14.3z"/>
<path fill-rule="evenodd" clip-rule="evenodd" fill="#FFFFFF" d="M16.7,15.2v-1.8v-0.4v-0.2c0-0.9,0.7-1.6,1.6-1.6H23
	c0.9,0,1.6,0.7,1.6,1.6v0.4c0,0.4,0,0.9,0,1.3c0,0.1-0.1,0.2-0.1,0.2c-0.8,0.6-1.1,1.4-1.1,2.3c0,0.6,0,1.1,0,1.7h0v7.2h0
	c-1.8,0-3.6,0-5.5,0c0-2.2,0-4.5,0-6.7c-0.4,0-1.2,0-1.2,0h0v-2.7C16.7,16,16.7,15.6,16.7,15.2z"/>
<path fill-rule="evenodd" clip-rule="evenodd" fill="#FFFFFF" d="M20.9,10c-1.3,0-2.4-1.1-2.4-2.4c0-1.4,1.1-2.5,2.4-2.5
	c1.3,0,2.4,1.1,2.4,2.4C23.4,8.9,22.3,10,20.9,10z"/>
</svg>
