<?xml version="1.0" encoding="utf-8"?>
<!-- Generator: Adobe Illustrator 15.0.2, SVG Export Plug-In . SVG Version: 6.00 Build 0)  -->
<!DOCTYPE svg PUBLIC "-//W3C//DTD SVG 1.1//EN" "http://www.w3.org/Graphics/SVG/1.1/DTD/svg11.dtd">
<svg version="1.1" id="Layer_1" xmlns="http://www.w3.org/2000/svg" xmlns:xlink="http://www.w3.org/1999/xlink" x="0px" y="0px"
	 width="47px" height="75px" viewBox="0 0 47 75" enable-background="new 0 0 47 75" xml:space="preserve">
<g>
	<g>
		<path fill-rule="evenodd" clip-rule="evenodd" fill="#EB6624" d="M20.3,0.4c0.5,0,0.9,0,1.4,0c4,0.6,4,5.6,4.8,9.6
			c1.4,6.4,2.5,12.2,3.8,18.7c0.3,1.3,0.3,3.1,1.4,3c1,0,1.1-1.9,1.4-3.2c1.5-7.6,3-14.7,4.5-22.4c0.6-3,1-5.2,4.1-5.8
			c0.4,0,0.8,0,1.3,0C45,0.8,46.3,2,46.8,4c0,0.4,0,0.8,0,1.3C45.4,12.1,44,19.1,42.6,26c-0.5,2.3-1.2,4.8-1.4,6.9
			c-0.3,3.5,0.2,7,0,10.9c-3.5-2.3-7.5-5.1-11.1-7.6c-1.9-1.3-3.3-2.8-6.1-2.6c-0.9,0.1-1.7,0.5-2.4,0.5c-0.1-1.2,0.2-2.8,0-4.3
			c-0.1-0.9-0.5-2-0.7-3c-1.3-6.3-2.6-12.8-3.8-19c-0.2-1.1-0.7-2.3-0.6-3.3C16.5,2.1,18.2,1,20.3,0.4z"/>
		<path fill-rule="evenodd" clip-rule="evenodd" fill="#EB6624" d="M18.6,42.4c-3.3,2.4-7.2,0.8-7.7-2.7c-0.1-1.1,0-2.9,0-4.5
			c0-2-0.2-4.1,0.2-5.5c0.6-1.8,2.3-2.8,3.6-2.9c3-0.4,4.9,1.5,5.2,4.1c0.1,1.3,0.3,3.5,0,4.7c-0.1,0.7-0.9,1.3-1.3,2.2
			C18,39.2,18,40.8,18.6,42.4z"/>
		<path fill-rule="evenodd" clip-rule="evenodd" fill="#EB6624" d="M0.2,40c0-2.4,0-4.8,0-7.1c0.3-0.7,0.4-1.5,0.8-2
			c1.9-2.6,7-2.1,7.9,1.4C9.1,33.1,9,34.6,9,36c0,1.4,0.2,3,0,4C8.3,44.7,0.7,44.6,0.2,40z"/>
		<path fill-rule="evenodd" clip-rule="evenodd" fill="#EB6624" d="M22.1,74.6c-0.9,0-1.9,0-2.8,0C8.1,73,1.8,66.6,0.2,55.5
			c0-3.9,0-7.8,0-11.8C1.9,45.6,5.7,46,8,44.5c0.9-0.6,1.3-1.4,2-2c1.1,3,6.9,3.9,9.5,1.6c2.1,1.8,4.7,3.5,6.9,5
			c0.7,0.5,1.8,1.5,2.7,0.7c0.5-1.1-0.7-1.7-1.4-2.2c-1.6-1.1-3-2-4.5-3c-0.8-0.6-1.7-1-2.2-1.7c-1.9-2.3-0.7-5.9,1.5-6.9
			c2.8-1.4,5.2,0.9,7,2.2c3.4,2.4,6.6,4.5,9.8,6.7c0.6,0.4,1.4,0.8,1.9,1.5c-0.1,4.3,0.3,8.1-0.3,11.5c-0.6,3.2-1.9,5.9-3.6,8.2
			C34.1,70.4,28.8,74.1,22.1,74.6z"/>
	</g>
</g>
</svg>
